# xmcd
#
# Track frame offsets: 
#        150
#        14045
#        27890
#        37745
#        54472
#        67745
#        80600
#        96072
#        109725
#        121737
#        132175
#        147172
#        158932
#        173367
#        186827
#        198482
#        213380
#        230057
#        244715
#        258262
#
# Disc length: 3621 seconds
#
# Revision: 4
# Processed by: cddbd v1.5.2PL0 Copyright (c) Steve Scherf et al.
# Submitted via: ExactAudioCopyFreeDBPlugin 1.0
#
DISCID=080e2314
DTITLE=Various Artist - Lost Soul [Sony Legacy's Rhythm and Soul Seri
DTITLE=es]
DYEAR=1994
DGENRE=Soul
TTITLE0=Brenda and The Tabulations - One Girl to Late
TTITLE1=Bill Coday - I'm Back to Collect
TTITLE2=Gwen McCrae - Lead Me On
TTITLE3=Jackie Moore - Personally
TTITLE4=Essence - Sweet Fools
TTITLE5=The Soul Children - Finders Keepers
TTITLE6=Z.Z. Hill - This Time They Told the Truth
TTITLE7=Betty LaVette - You're a Man of Words, I'm a Woman of Action
TTITLE8=Mavis Staples with The Staple Singers - Crying in the Chapel
TTITLE9=The Vibrations - Love in Them There Hills
TTITLE10=Freddie Scott - Are You Lonely for My Baby
TTITLE11=Brenda and The Tabulations - Walk On
TTITLE12=Philly Devotions - I Just Can't Say Goodbye
TTITLE13=Joe Tex - We Held On
TTITLE14=Roger Hatcher - Caought Making Love
TTITLE15=Bobby Womack and The Brotherhood - Home is Where the Heart Is
TTITLE16=Howard Tate - Ain't Nobody to Give It To
TTITLE17=Essence - Relax, It's Just Like Dancin'
TTITLE18=Gwen McCrae - Ain't Nothing You Can Do
TTITLE19=Don Covay and The Goodtimers - See About Me
EXTD=
EXTT0=
EXTT1=
EXTT2=
EXTT3=
EXTT4=
EXTT5=
EXTT6=
EXTT7=
EXTT8=
EXTT9=
EXTT10=
EXTT11=
EXTT12=
EXTT13=
EXTT14=
EXTT15=
EXTT16=
EXTT17=
EXTT18=
EXTT19=
PLAYORDER=
